<mxfile host="Electron" modified="2023-09-28T15:38:30.910Z" agent="Mozilla/5.0 (Windows NT 10.0; Win64; x64) AppleWebKit/537.36 (KHTML, like Gecko) draw.io/22.0.0 Chrome/114.0.5735.289 Electron/25.8.3 Safari/537.36" etag="5WuscrIMJuJI32NqZ5__" version="22.0.0" type="device">
  <diagram name="PÃ¡gina-1" id="-pW1G3JHAOtNmuN84L0g">
    <mxGraphModel dx="915" dy="658" grid="1" gridSize="10" guides="1" tooltips="1" connect="1" arrows="1" fold="1" page="1" pageScale="1" pageWidth="827" pageHeight="1169" math="0" shadow="0">
      <root>
        <mxCell id="0" />
        <mxCell id="1" parent="0" />
        <mxCell id="TRqF4CzMS5WjBikttOiV-5" value="" style="edgeStyle=orthogonalEdgeStyle;rounded=0;orthogonalLoop=1;jettySize=auto;html=1;" edge="1" parent="1" source="TRqF4CzMS5WjBikttOiV-1" target="TRqF4CzMS5WjBikttOiV-2">
          <mxGeometry relative="1" as="geometry">
            <Array as="points">
              <mxPoint x="370" y="90" />
              <mxPoint x="370" y="90" />
            </Array>
          </mxGeometry>
        </mxCell>
        <mxCell id="TRqF4CzMS5WjBikttOiV-1" value="incio" style="ellipse;whiteSpace=wrap;html=1;fillColor=#0050ef;fontColor=#ffffff;strokeColor=#001DBC;" vertex="1" parent="1">
          <mxGeometry x="278" y="20" width="184" height="50" as="geometry" />
        </mxCell>
        <mxCell id="TRqF4CzMS5WjBikttOiV-4" value="" style="edgeStyle=orthogonalEdgeStyle;rounded=0;orthogonalLoop=1;jettySize=auto;html=1;" edge="1" parent="1" source="TRqF4CzMS5WjBikttOiV-2" target="TRqF4CzMS5WjBikttOiV-3">
          <mxGeometry relative="1" as="geometry" />
        </mxCell>
        <mxCell id="TRqF4CzMS5WjBikttOiV-2" value="escribir &quot;introduce la media de la arista&quot;" style="shape=parallelogram;perimeter=parallelogramPerimeter;whiteSpace=wrap;html=1;fixedSize=1;fillColor=#e3c800;fontColor=#000000;strokeColor=#B09500;" vertex="1" parent="1">
          <mxGeometry x="270" y="260" width="200" height="60" as="geometry" />
        </mxCell>
        <mxCell id="TRqF4CzMS5WjBikttOiV-25" style="edgeStyle=orthogonalEdgeStyle;rounded=0;orthogonalLoop=1;jettySize=auto;html=1;exitX=0.5;exitY=1;exitDx=0;exitDy=0;entryX=0.5;entryY=0;entryDx=0;entryDy=0;" edge="1" parent="1" source="TRqF4CzMS5WjBikttOiV-3" target="TRqF4CzMS5WjBikttOiV-8">
          <mxGeometry relative="1" as="geometry" />
        </mxCell>
        <mxCell id="TRqF4CzMS5WjBikttOiV-3" value="leer arista&amp;nbsp;" style="shape=parallelogram;perimeter=parallelogramPerimeter;whiteSpace=wrap;html=1;fixedSize=1;fillColor=#e3c800;fontColor=#000000;strokeColor=#B09500;" vertex="1" parent="1">
          <mxGeometry x="310" y="350" width="120" height="60" as="geometry" />
        </mxCell>
        <mxCell id="TRqF4CzMS5WjBikttOiV-6" value="contador = 0&lt;br&gt;result = 0" style="whiteSpace=wrap;html=1;fillColor=#60a917;fontColor=#ffffff;strokeColor=#2D7600;" vertex="1" parent="1">
          <mxGeometry x="310" y="120" width="120" height="60" as="geometry" />
        </mxCell>
        <mxCell id="TRqF4CzMS5WjBikttOiV-16" style="edgeStyle=orthogonalEdgeStyle;rounded=0;orthogonalLoop=1;jettySize=auto;html=1;exitX=1;exitY=0.5;exitDx=0;exitDy=0;entryX=0.5;entryY=0;entryDx=0;entryDy=0;" edge="1" parent="1" source="TRqF4CzMS5WjBikttOiV-8" target="TRqF4CzMS5WjBikttOiV-15">
          <mxGeometry relative="1" as="geometry" />
        </mxCell>
        <mxCell id="TRqF4CzMS5WjBikttOiV-21" style="edgeStyle=orthogonalEdgeStyle;rounded=0;orthogonalLoop=1;jettySize=auto;html=1;exitX=0;exitY=0.5;exitDx=0;exitDy=0;entryX=0.5;entryY=0;entryDx=0;entryDy=0;" edge="1" parent="1" source="TRqF4CzMS5WjBikttOiV-8" target="TRqF4CzMS5WjBikttOiV-22">
          <mxGeometry relative="1" as="geometry">
            <mxPoint x="150" y="520" as="targetPoint" />
            <mxPoint x="245" y="470" as="sourcePoint" />
            <Array as="points">
              <mxPoint x="170" y="470" />
            </Array>
          </mxGeometry>
        </mxCell>
        <mxCell id="TRqF4CzMS5WjBikttOiV-8" value="arista &amp;gt; 0&amp;nbsp;" style="rhombus;whiteSpace=wrap;html=1;fillColor=#d80073;fontColor=#ffffff;strokeColor=#A50040;" vertex="1" parent="1">
          <mxGeometry x="275" y="430" width="190" height="80" as="geometry" />
        </mxCell>
        <mxCell id="TRqF4CzMS5WjBikttOiV-19" value="" style="edgeStyle=orthogonalEdgeStyle;rounded=0;orthogonalLoop=1;jettySize=auto;html=1;" edge="1" parent="1" source="TRqF4CzMS5WjBikttOiV-15">
          <mxGeometry relative="1" as="geometry">
            <mxPoint x="605" y="650" as="targetPoint" />
          </mxGeometry>
        </mxCell>
        <mxCell id="TRqF4CzMS5WjBikttOiV-26" style="edgeStyle=orthogonalEdgeStyle;rounded=0;orthogonalLoop=1;jettySize=auto;html=1;exitX=1;exitY=0.75;exitDx=0;exitDy=0;entryX=1;entryY=0.5;entryDx=0;entryDy=0;" edge="1" parent="1" source="TRqF4CzMS5WjBikttOiV-20" target="TRqF4CzMS5WjBikttOiV-2">
          <mxGeometry relative="1" as="geometry">
            <Array as="points">
              <mxPoint x="651" y="638" />
              <mxPoint x="740" y="638" />
              <mxPoint x="740" y="290" />
            </Array>
          </mxGeometry>
        </mxCell>
        <mxCell id="TRqF4CzMS5WjBikttOiV-15" value="result = (arista)&lt;sup&gt;3&lt;/sup&gt;&lt;br&gt;contador = contador + 1" style="rounded=0;whiteSpace=wrap;html=1;align=center;fillColor=#60a917;fontColor=#ffffff;strokeColor=#2D7600;" vertex="1" parent="1">
          <mxGeometry x="490" y="510" width="230" height="60" as="geometry" />
        </mxCell>
        <mxCell id="TRqF4CzMS5WjBikttOiV-17" value="si" style="text;html=1;strokeColor=none;fillColor=none;align=center;verticalAlign=middle;whiteSpace=wrap;rounded=0;" vertex="1" parent="1">
          <mxGeometry x="500" y="440" width="60" height="30" as="geometry" />
        </mxCell>
        <mxCell id="TRqF4CzMS5WjBikttOiV-20" value="escribir result&amp;nbsp;" style="shape=parallelogram;perimeter=parallelogramPerimeter;whiteSpace=wrap;html=1;fixedSize=1;fillColor=#e3c800;fontColor=#000000;strokeColor=#B09500;" vertex="1" parent="1">
          <mxGeometry x="545" y="600" width="120" height="60" as="geometry" />
        </mxCell>
        <mxCell id="TRqF4CzMS5WjBikttOiV-24" style="edgeStyle=orthogonalEdgeStyle;rounded=0;orthogonalLoop=1;jettySize=auto;html=1;exitX=0.5;exitY=1;exitDx=0;exitDy=0;entryX=0;entryY=0.5;entryDx=0;entryDy=0;" edge="1" parent="1" source="TRqF4CzMS5WjBikttOiV-22" target="TRqF4CzMS5WjBikttOiV-23">
          <mxGeometry relative="1" as="geometry" />
        </mxCell>
        <mxCell id="TRqF4CzMS5WjBikttOiV-22" value="Escribir &quot;se han realizado&quot; + contador + &quot;calculos&quot;" style="rounded=0;whiteSpace=wrap;html=1;fillColor=#60a917;fontColor=#ffffff;strokeColor=#2D7600;" vertex="1" parent="1">
          <mxGeometry x="60" y="520" width="220" height="60" as="geometry" />
        </mxCell>
        <mxCell id="TRqF4CzMS5WjBikttOiV-23" value="FIN" style="ellipse;whiteSpace=wrap;html=1;fillColor=#0050ef;fontColor=#ffffff;strokeColor=#001DBC;" vertex="1" parent="1">
          <mxGeometry x="285" y="700" width="180" height="70" as="geometry" />
        </mxCell>
      </root>
    </mxGraphModel>
  </diagram>
</mxfile>
